<?xml version="1.0" encoding="UTF-8"?>
<svg id="Layer_2" data-name="Layer 2" xmlns="http://www.w3.org/2000/svg" viewBox="0 0 33.47 70.3">
  <defs>
    <style>
      .cls-1 {
        fill: #424242;
      }
    </style>
  </defs>
  <g id="Layer_1-2" data-name="Layer 1">
    <path class="cls-1" d="M11.27,61.17c.63,0,1.33,0,1.89-.33v-2.29c-.52,.46-1.89,.67-3.38,.67-2.04,0-2.61,1.08-2.72,1.81h-.04c-.14-.39-.77-2.02-3.24-2.02-2.18,0-3.47,1.37-3.47,4.04v5.83H13.16v-2.14H7.87v-3.15c0-1.97,1.04-2.43,3.4-2.43Zm-5.11,5.58H2.14v-3.47c0-1.11,.32-2.12,1.96-2.12,1.35,0,2.05,.74,2.05,2.09v3.51Z"/>
    <path class="cls-1" d="M6.73,57.66c3.67,0,6.73-2.19,6.73-5.85s-3.06-5.85-6.73-5.85-6.73,2.19-6.73,5.85,3.06,5.85,6.73,5.85Zm0-9.56c2.47,0,4.9,1.1,4.9,3.71s-2.43,3.71-4.9,3.71-4.9-1.09-4.9-3.71,2.43-3.71,4.9-3.71Z"/>
    <polygon class="cls-1" points="13.16 42.24 3.71 42.24 3.71 42.19 13.16 36.63 13.16 34.37 .31 34.37 .31 36.41 9.78 36.41 9.78 36.44 .31 42.02 .31 44.27 13.16 44.27 13.16 42.24"/>
    <path class="cls-1" d="M13.16,31.23l-3.4-1.15v-4.88l3.4-1.15v-2.29L.31,26.47v2.28l12.86,4.69v-2.21Zm-5.11-1.73l-5.53-1.85v-.05l5.53-1.83v3.73Z"/>
    <polygon class="cls-1" points="13.16 18.83 3.71 18.83 3.71 18.78 13.16 13.22 13.16 10.96 .31 10.96 .31 13 9.78 13 9.78 13.03 .31 18.61 .31 20.87 13.16 20.87 13.16 18.83"/>
    <path class="cls-1" d="M33.16,60.93v-2.29l-12.86,4.7v2.28l12.86,4.69v-2.21l-3.4-1.15v-4.88l3.4-1.15Zm-5.11,5.44l-5.53-1.85v-.05l5.53-1.83v3.73Z"/>
    <path class="cls-1" d="M26.73,58.21c3.67,0,6.73-2.19,6.73-5.85,0-1.49-.45-2.53-1.82-3.68l1.51-.32v-1.37h-6.77v5.2h1.71v-3.25c2.18,.03,3.57,1.23,3.53,3.42,0,2.62-2.43,3.71-4.9,3.71s-4.9-1.09-4.9-3.71c0-1.54,.86-2.94,2.56-3.15v-2.09c-2.9,.33-4.39,2.57-4.39,5.23,0,3.66,3.06,5.85,6.73,5.85Z"/>
    <polygon class="cls-1" points="20.31 36.05 20.31 44.84 33.16 44.84 33.16 35.93 31.22 35.93 31.22 42.7 27.45 42.7 27.45 36.54 25.62 36.54 25.62 42.7 22.25 42.7 22.25 36.05 20.31 36.05"/>
    <polygon class="cls-1" points="33.16 26.68 33.16 24.42 20.31 24.42 20.31 26.45 29.78 26.45 29.78 26.49 20.31 32.06 20.31 34.32 33.16 34.32 33.16 32.29 23.71 32.29 23.71 32.24 33.16 26.68"/>
    <path class="cls-1" d="M26.73,22.71c3.67,0,6.73-2.19,6.73-5.85,0-2.96-2.12-5.03-5.2-5.2v2.09c1.87,.17,3.37,1.21,3.37,3.11,0,2.62-2.43,3.71-4.9,3.71s-4.9-1.09-4.9-3.71c0-1.78,1.08-2.69,2.56-3.04v-2.14c-2.77,.26-4.37,2.43-4.39,5.18,0,3.66,3.06,5.85,6.73,5.85Z"/>
    <polygon class="cls-1" points="33.16 6.7 33.16 4.57 28.12 4.57 20.31 0 20.31 2.39 26.07 5.58 20.31 8.81 20.31 11.29 28.12 6.7 33.16 6.7"/>
  </g>
</svg>