<?xml version="1.0" encoding="UTF-8"?>
<svg id="Layer_2" data-name="Layer 2" xmlns="http://www.w3.org/2000/svg" viewBox="0 0 529.41 159.13">
  <g id="Layer_1-2" data-name="Layer 1">
    <g>
      <circle cx="4.85" cy="154.28" r="4.85"/>
      <circle cx="48.16" cy="154.28" r="4.85"/>
      <path d="M91.47,149.42c-2.68,0-4.85,2.17-4.85,4.85s2.17,4.85,4.85,4.85,4.85-2.17,4.85-4.85-2.17-4.85-4.85-4.85Z"/>
      <circle cx="134.78" cy="154.28" r="4.85"/>
      <circle cx="178.09" cy="154.28" r="4.85"/>
      <circle cx="221.39" cy="154.28" r="4.85"/>
      <path d="M264.7,149.42c-2.68,0-4.85,2.17-4.85,4.85s2.17,4.85,4.85,4.85,4.85-2.17,4.85-4.85-2.17-4.85-4.85-4.85Z"/>
      <circle cx="308.01" cy="154.28" r="4.85"/>
      <circle cx="351.32" cy="154.28" r="4.85"/>
      <path d="M394.63,149.42c-2.68,0-4.85,2.17-4.85,4.85s2.17,4.85,4.85,4.85,4.85-2.17,4.85-4.85-2.17-4.85-4.85-4.85Z"/>
      <path d="M437.93,149.42c-2.68,0-4.85,2.17-4.85,4.85s2.17,4.85,4.85,4.85,4.85-2.17,4.85-4.85-2.17-4.85-4.85-4.85Z"/>
      <circle cx="481.24" cy="154.28" r="4.85"/>
      <circle cx="524.55" cy="154.28" r="4.85"/>
      <circle cx="4.85" cy="104.47" r="4.85"/>
      <circle cx="48.16" cy="104.47" r="4.85"/>
      <path d="M91.47,99.61c-2.68,0-4.85,2.17-4.85,4.85s2.17,4.85,4.85,4.85,4.85-2.17,4.85-4.85-2.17-4.85-4.85-4.85Z"/>
      <circle cx="134.78" cy="104.47" r="4.85"/>
      <circle cx="178.09" cy="104.47" r="4.85"/>
      <circle cx="221.39" cy="104.47" r="4.85"/>
      <path d="M264.7,99.61c-2.68,0-4.85,2.17-4.85,4.85s2.17,4.85,4.85,4.85,4.85-2.17,4.85-4.85-2.17-4.85-4.85-4.85Z"/>
      <circle cx="308.01" cy="104.47" r="4.85"/>
      <circle cx="351.32" cy="104.47" r="4.85"/>
      <path d="M394.63,99.61c-2.68,0-4.85,2.17-4.85,4.85s2.17,4.85,4.85,4.85,4.85-2.17,4.85-4.85-2.17-4.85-4.85-4.85Z"/>
      <path d="M437.93,99.61c-2.68,0-4.85,2.17-4.85,4.85s2.17,4.85,4.85,4.85,4.85-2.17,4.85-4.85-2.17-4.85-4.85-4.85Z"/>
      <circle cx="481.24" cy="104.47" r="4.85"/>
      <circle cx="524.55" cy="104.47" r="4.85"/>
      <path d="M4.85,49.81c-2.68,0-4.85,2.17-4.85,4.85s2.17,4.85,4.85,4.85,4.85-2.17,4.85-4.85-2.17-4.85-4.85-4.85Z"/>
      <path d="M48.16,49.81c-2.68,0-4.85,2.17-4.85,4.85s2.17,4.85,4.85,4.85,4.85-2.17,4.85-4.85-2.17-4.85-4.85-4.85Z"/>
      <path d="M91.47,49.81c-2.68,0-4.85,2.17-4.85,4.85s2.17,4.85,4.85,4.85,4.85-2.17,4.85-4.85-2.17-4.85-4.85-4.85Z"/>
      <path d="M134.78,49.81c-2.68,0-4.85,2.17-4.85,4.85s2.17,4.85,4.85,4.85,4.85-2.17,4.85-4.85-2.17-4.85-4.85-4.85Z"/>
      <path d="M178.09,49.81c-2.68,0-4.85,2.17-4.85,4.85s2.17,4.85,4.85,4.85,4.85-2.17,4.85-4.85-2.17-4.85-4.85-4.85Z"/>
      <path d="M221.39,49.81c-2.68,0-4.85,2.17-4.85,4.85s2.17,4.85,4.85,4.85,4.85-2.17,4.85-4.85-2.17-4.85-4.85-4.85Z"/>
      <path d="M264.7,49.81c-2.68,0-4.85,2.17-4.85,4.85s2.17,4.85,4.85,4.85,4.85-2.17,4.85-4.85-2.17-4.85-4.85-4.85Z"/>
      <path d="M308.01,49.81c-2.68,0-4.85,2.17-4.85,4.85s2.17,4.85,4.85,4.85,4.85-2.17,4.85-4.85-2.17-4.85-4.85-4.85Z"/>
      <path d="M351.32,49.81c-2.68,0-4.85,2.17-4.85,4.85s2.17,4.85,4.85,4.85,4.85-2.17,4.85-4.85-2.17-4.85-4.85-4.85Z"/>
      <path d="M394.63,49.81c-2.68,0-4.85,2.17-4.85,4.85s2.17,4.85,4.85,4.85,4.85-2.17,4.85-4.85-2.17-4.85-4.85-4.85Z"/>
      <path d="M437.93,49.81c-2.68,0-4.85,2.17-4.85,4.85s2.17,4.85,4.85,4.85,4.85-2.17,4.85-4.85-2.17-4.85-4.85-4.85Z"/>
      <path d="M481.24,49.81c-2.68,0-4.85,2.17-4.85,4.85s2.17,4.85,4.85,4.85,4.85-2.17,4.85-4.85-2.17-4.85-4.85-4.85Z"/>
      <path d="M524.55,49.81c-2.68,0-4.85,2.17-4.85,4.85s2.17,4.85,4.85,4.85,4.85-2.17,4.85-4.85-2.17-4.85-4.85-4.85Z"/>
      <circle cx="4.85" cy="4.85" r="4.85"/>
      <circle cx="48.16" cy="4.85" r="4.85"/>
      <path d="M91.47,0c-2.68,0-4.85,2.17-4.85,4.85s2.17,4.85,4.85,4.85,4.85-2.17,4.85-4.85-2.17-4.85-4.85-4.85Z"/>
      <circle cx="134.78" cy="4.85" r="4.85"/>
      <circle cx="178.09" cy="4.85" r="4.85"/>
      <circle cx="221.39" cy="4.85" r="4.85"/>
      <path d="M264.7,0c-2.68,0-4.85,2.17-4.85,4.85s2.17,4.85,4.85,4.85,4.85-2.17,4.85-4.85-2.17-4.85-4.85-4.85Z"/>
      <circle cx="308.01" cy="4.85" r="4.85"/>
      <circle cx="351.32" cy="4.85" r="4.85"/>
      <path d="M394.63,0c-2.68,0-4.85,2.17-4.85,4.85s2.17,4.85,4.85,4.85,4.85-2.17,4.85-4.85-2.17-4.85-4.85-4.85Z"/>
      <path d="M437.93,0c-2.68,0-4.85,2.17-4.85,4.85s2.17,4.85,4.85,4.85,4.85-2.17,4.85-4.85-2.17-4.85-4.85-4.85Z"/>
      <circle cx="481.24" cy="4.85" r="4.85"/>
      <circle cx="524.55" cy="4.85" r="4.85"/>
    </g>
  </g>
</svg>