<?xml version="1.0" encoding="UTF-8"?>
<svg id="Layer_2" data-name="Layer 2" xmlns="http://www.w3.org/2000/svg" xmlns:xlink="http://www.w3.org/1999/xlink" viewBox="0 0 105.13 18.81">
  <defs>
    <style>
      .cls-1 {
        fill: url(#linear-gradient);
      }
    </style>
    <linearGradient id="linear-gradient" x1="0" y1="9.41" x2="105.13" y2="9.41" gradientUnits="userSpaceOnUse">
      <stop offset="0" stop-color="#8b6efe"/>
      <stop offset=".5" stop-color="#fff"/>
    </linearGradient>
  </defs>
  <g id="Layer_1-2" data-name="Layer 1">
    <path class="cls-1" d="M55.82,3.73c-.09-.44-.25-.85-.48-1.21-.29-.44-.68-.78-1.17-1.01s-1.24-.35-2.25-.37h-7.06l-3.06,14.39h2.94l1.19-5.64h3.11c.89,0,1.46,.15,1.71,.46,.26,.31,.29,.92,.11,1.84l-.26,1.34c-.08,.42-.13,.84-.14,1.24,0,.2,.01,.45,.04,.77h3.31l.07-.36c-.25-.18-.37-.45-.37-.82,0-.23,.07-.68,.21-1.34l.2-.97c.21-1.01,.24-1.76,.06-2.25-.17-.49-.56-.87-1.17-1.14,.85-.27,1.52-.74,2.01-1.4,.48-.66,.8-1.33,.95-2.02,.12-.57,.13-1.07,.04-1.51Zm-3.15,1.92c-.18,.81-.59,1.35-1.25,1.62-.37,.16-.89,.23-1.57,.23h-3.41l.82-3.87h3.5c.65,0,1.12,.08,1.42,.25,.51,.3,.68,.89,.5,1.76Zm7.77-1.1c-1.83,0-3.19,.56-4.09,1.69-.9,1.13-1.35,2.46-1.35,3.99s.45,2.9,1.35,4.01c.9,1.11,2.26,1.66,4.09,1.66s3.19-.55,4.09-1.66c.9-1.11,1.35-2.44,1.35-4.01s-.45-2.87-1.35-3.99c-.9-1.13-2.26-1.69-4.09-1.69Zm1.87,8.15c-.44,.58-1.06,.87-1.87,.87s-1.44-.29-1.88-.87-.66-1.4-.66-2.47,.22-1.89,.66-2.46c.44-.58,1.07-.86,1.88-.86s1.44,.29,1.87,.86c.44,.58,.65,1.4,.65,2.46s-.22,1.89-.65,2.47Zm13.85-7.19c.7,.58,1.05,1.53,1.05,2.87v7.17h-2.85v-6.47c0-.56-.07-.99-.22-1.29-.27-.55-.79-.82-1.55-.82-.94,0-1.58,.4-1.93,1.2-.18,.42-.27,.96-.27,1.62v5.76h-2.78V4.92h2.7v1.55c.36-.55,.69-.94,1.01-1.18,.57-.43,1.29-.64,2.17-.64,1.1,0,1.99,.29,2.69,.86Zm12.21,9.3c-.09-.13-.15-.38-.17-.74-.01-.48-.02-.89-.02-1.23V7.95c0-1.28-.45-2.15-1.36-2.62-.91-.46-1.95-.69-3.12-.69-1.8,0-3.07,.47-3.81,1.41-.46,.6-.73,1.36-.78,2.3h2.69c.07-.41,.2-.74,.4-.98,.28-.33,.75-.49,1.42-.49,.59,0,1.04,.08,1.35,.25,.31,.17,.46,.47,.46,.9,0,.36-.2,.62-.6,.79-.22,.1-.59,.18-1.11,.24l-.95,.12c-1.08,.14-1.9,.36-2.46,.68-1.02,.59-1.52,1.53-1.52,2.84,0,1.01,.32,1.79,.95,2.34,.63,.55,1.43,.83,2.4,.83,.76,0,1.44-.17,2.04-.52,.5-.29,.95-.65,1.34-1.06,.02,.24,.05,.46,.08,.64,.03,.19,.09,.39,.18,.61h3.03v-.41c-.18-.08-.32-.19-.41-.32Zm-2.96-3.41c-.02,.93-.29,1.57-.8,1.92-.51,.35-1.07,.53-1.68,.53-.38,0-.71-.11-.98-.32-.27-.21-.4-.56-.4-1.03,0-.53,.22-.93,.66-1.18,.26-.15,.69-.28,1.28-.38l.63-.12c.32-.06,.57-.12,.75-.19,.18-.07,.36-.16,.54-.27v1.04Zm13.49-5.89c.7,.58,1.05,1.53,1.05,2.87v7.17h-2.85v-6.47c0-.56-.07-.99-.22-1.29-.27-.55-.79-.82-1.55-.82-.94,0-1.58,.4-1.93,1.2-.18,.42-.27,.96-.27,1.62v5.76h-2.78V4.92h2.7v1.55c.36-.55,.69-.94,1.01-1.18,.57-.43,1.29-.64,2.17-.64,1.1,0,1.99,.29,2.69,.86Zm6.24,7.11v2.92h-2.96v-2.92h2.96ZM38.18,5.98c0,1.61-.75,3.06-2.1,4.09-1.41,1.07-3.35,1.61-5.77,1.61-1.61,0-3.53-.24-5.37-.56,3.37,2.63,6.32,4.98,6.36,5.01,.65,.52,.76,1.46,.24,2.11-.3,.37-.73,.57-1.17,.57-.33,0-.66-.11-.93-.33-.07-.05-6.92-5.5-11.66-9.1-.57-.44-.76-1.22-.44-1.86,.32-.64,1.05-.97,1.75-.78,.07,.02,7.04,1.95,11.22,1.95,2.18,0,3.35-.54,3.95-1,.6-.46,.92-1.04,.92-1.7,0-1.47-1.49-2.98-4-2.98-2.73,0-13.44,2.1-29.11,8.57-.76,.32-1.64-.05-1.96-.81-.32-.77,.05-1.64,.81-1.96C16.44,2.39,27.72,0,31.19,0c4.38,0,7,3.04,7,5.98Z"/>
  </g>
</svg>