<?xml version="1.0" encoding="UTF-8"?>
<svg id="Layer_2" data-name="Layer 2" xmlns="http://www.w3.org/2000/svg" viewBox="0 0 762.25 207.62">
  <defs>
    <style>
      .cls-1 {
        fill: #424242;
      }
    </style>
  </defs>
  <g id="Layer_1-2" data-name="Layer 1">
    <g>
      <path class="cls-1" d="M181.95,19.48c3.15,5.16,5.32,10.87,6.5,17.13,1.18,6.27,.99,13.4-.59,21.42-2.01,9.67-6.28,19.19-12.8,28.54-6.52,9.35-15.51,15.96-26.98,19.83,8.14,3.78,13.37,9.14,15.69,16.1,2.32,6.96,2.04,17.57-.85,31.85l-2.76,13.68c-1.84,9.31-2.76,15.61-2.76,18.93,0,5.25,1.66,9.12,4.99,11.61l-.92,5.11h-44.5c-.35-4.51-.53-8.15-.53-10.92,.09-5.71,.7-11.56,1.84-17.55l3.55-18.93c2.45-12.99,1.95-21.65-1.51-25.98-3.46-4.33-11.14-6.5-23.04-6.5H55.53l-16.02,79.87H0L41.09,0h94.91c13.48,.28,23.54,2.03,30.19,5.25,6.65,3.23,11.9,7.97,15.75,14.23Zm-108.56,15.89l-11.03,54.72h45.81c9.1,0,16.15-1.11,21.14-3.32,8.84-3.87,14.44-11.51,16.8-22.94,2.45-12.34,.22-20.63-6.69-24.87-3.94-2.39-10.29-3.59-19.04-3.59h-47Z"/>
      <path class="cls-1" d="M177.5,130.9c0-44.4,26.7-76.43,73.34-76.43s73.34,32.03,73.34,76.43-26.7,76.71-73.34,76.71-73.34-32.03-73.34-76.71Zm114.65,0c0-25.01-12.65-51.14-41.31-51.14s-41.31,26.13-41.31,51.14,12.64,51.42,41.31,51.42,41.31-26.13,41.31-51.42Z"/>
      <path class="cls-1" d="M339.63,58.4h30.35v21.36l.56,.56c9.55-16.02,26.13-25.85,45.24-25.85,31.47,0,51.42,16.86,51.42,49.46v99.76h-32.03V112.36c-.56-22.76-9.55-32.6-28.38-32.6-21.36,0-35.12,16.86-35.12,38.22v85.71h-32.04V58.4Z"/>
      <path class="cls-1" d="M605.74,171.37c0,7.87,1.69,10.96,7.59,10.96,1.97,0,4.5,0,7.87-.56v22.2c-4.78,1.69-14.89,3.65-20.23,3.65-12.93,0-22.2-4.5-24.73-17.7-12.65,12.36-33.16,17.7-50.3,17.7-26.13,0-49.74-14.05-49.74-42.43,0-36.25,28.94-42.15,55.92-45.24,23.04-4.21,43.56-1.69,43.56-20.51,0-16.58-17.14-19.67-30.07-19.67-17.98,0-30.63,7.31-32.03,23.04h-32.04c2.25-37.37,34-48.33,66.04-48.33,28.38,0,58.17,11.52,58.17,42.15v74.75Zm-32.04-40.46c-9.83,6.46-25.29,6.18-39.34,8.71-13.77,2.25-26.13,7.31-26.13,24.17,0,14.33,18.27,18.55,29.51,18.55,14.05,0,35.97-7.31,35.97-27.54v-23.89Z"/>
      <path class="cls-1" d="M634.68,58.4h30.35v21.36l.56,.56c9.55-16.02,26.13-25.85,45.24-25.85,31.47,0,51.42,16.86,51.42,49.46v99.76h-32.04V112.36c-.56-22.76-9.55-32.6-28.38-32.6-21.36,0-35.13,16.86-35.13,38.22v85.71h-32.03V58.4Z"/>
    </g>
  </g>
</svg>