<?xml version="1.0" encoding="UTF-8"?>
<svg id="Layer_2" data-name="Layer 2" xmlns="http://www.w3.org/2000/svg" viewBox="0 0 29.14 18.21">
  <defs>
    <style>
      .cls-1 {
        fill: #424242;
      }
    </style>
  </defs>
  <g id="Layer_1-2" data-name="Layer 1">
    <path class="cls-1" d="M26.71,2.43h-8.5V0h8.5V2.43Zm2.1,12.14c-.54,1.57-2.46,3.64-6.19,3.64s-6.75-2.1-6.75-6.89,2.82-7.19,6.64-7.19,6.03,2.16,6.53,5.37c.09,.61,.13,1.44,.12,2.6h-9.74c.16,3.9,4.23,4.02,5.57,2.46h3.85Zm-9.33-4.86h6.03c-.13-1.88-1.38-2.69-3.01-2.69-1.78,0-2.76,.93-3.02,2.69ZM7.85,18.2H0V.03H8.44c6.65,.1,6.77,6.61,3.3,8.38,4.2,1.53,4.34,9.79-3.89,9.79ZM3.64,7.28H7.99c3.04,0,3.53-3.64-.38-3.64H3.64v3.64Zm4.12,3.64H3.64v3.66H7.7c3.71,0,3.48-3.66,.06-3.66Z"/>
  </g>
</svg>