<?xml version="1.0" encoding="UTF-8"?>
<svg id="Layer_2" data-name="Layer 2" xmlns="http://www.w3.org/2000/svg" viewBox="0 0 28.67 28.67">
  <defs>
    <style>
      .cls-1 {
        fill: #424242;
      }
    </style>
  </defs>
  <g id="Layer_1-2" data-name="Layer 1">
    <path class="cls-1" d="M14.33,2.58c3.83,0,4.28,.01,5.79,.08,3.89,.18,5.7,2.02,5.88,5.87,.07,1.51,.08,1.96,.08,5.79s-.01,4.28-.08,5.79c-.18,3.85-1.99,5.7-5.88,5.88-1.51,.07-1.96,.08-5.79,.08s-4.28-.01-5.79-.08c-3.89-.18-5.7-2.03-5.88-5.88-.07-1.51-.08-1.96-.08-5.79s.02-4.28,.08-5.79c.18-3.86,1.99-5.7,5.88-5.88,1.51-.07,1.96-.08,5.79-.08Zm0-2.58c-3.89,0-4.38,.02-5.91,.09C3.22,.33,.32,3.22,.09,8.42c-.07,1.53-.09,2.02-.09,5.91s.02,4.38,.09,5.91c.24,5.21,3.13,8.1,8.34,8.34,1.53,.07,2.02,.09,5.91,.09s4.38-.02,5.91-.09c5.2-.24,8.1-3.13,8.33-8.34,.07-1.53,.09-2.02,.09-5.91s-.02-4.38-.09-5.91C28.35,3.22,25.45,.32,20.25,.09c-1.53-.07-2.02-.09-5.91-.09Zm0,6.97c-4.06,0-7.36,3.29-7.36,7.36s3.3,7.36,7.36,7.36,7.36-3.29,7.36-7.36-3.3-7.36-7.36-7.36Zm0,12.14c-2.64,0-4.78-2.14-4.78-4.78s2.14-4.78,4.78-4.78,4.78,2.14,4.78,4.78-2.14,4.78-4.78,4.78Zm7.65-14.15c-.95,0-1.72,.77-1.72,1.72s.77,1.72,1.72,1.72,1.72-.77,1.72-1.72-.77-1.72-1.72-1.72Z"/>
  </g>
</svg>