<?xml version="1.0" encoding="UTF-8"?>
<svg id="Layer_2" data-name="Layer 2" xmlns="http://www.w3.org/2000/svg" viewBox="0 0 24.55 23.35">
  <defs>
    <style>
      .cls-1 {
        fill: #424242;
      }
    </style>
  </defs>
  <g id="Layer_1-2" data-name="Layer 1">
    <g>
      <path class="cls-1" d="M5.71,7.5H.79c-.22,0-.4,.17-.4,.38v15.09c0,.21,.18,.38,.4,.38H5.71c.22,0,.4-.17,.4-.38V7.88c0-.21-.18-.38-.4-.38Z"/>
      <path class="cls-1" d="M3.25,0C1.46,0,0,1.39,0,3.1s1.46,3.1,3.25,3.1,3.25-1.39,3.25-3.1c0-1.71-1.46-3.1-3.25-3.1Z"/>
      <path class="cls-1" d="M18.25,7.13c-1.98,0-3.44,.81-4.33,1.73v-.98c0-.21-.18-.38-.4-.38h-4.72c-.22,0-.4,.17-.4,.38v15.09c0,.21,.18,.38,.4,.38h4.92c.22,0,.4-.17,.4-.38v-7.47c0-2.52,.72-3.5,2.56-3.5,2,0,2.16,1.57,2.16,3.63v7.34c0,.21,.18,.38,.4,.38h4.92c.22,0,.4-.17,.4-.38V14.69c0-3.74-.75-7.57-6.3-7.57Z"/>
    </g>
  </g>
</svg>