<?xml version="1.0" encoding="UTF-8"?>
<svg id="Layer_2" data-name="Layer 2" xmlns="http://www.w3.org/2000/svg" viewBox="0 0 205.42 205.42">
  <defs>
    <style>
      .cls-1 {
        fill: #424242;
      }
    </style>
  </defs>
  <g id="Layer_1-2" data-name="Layer 1">
    <path class="cls-1" d="M0,205.42H205.42V0H0V205.42ZM1.5,1.5H203.92V203.92H1.5V1.5Z"/>
    <path class="cls-1" d="M67.05,114.53c0-8.81-3.38-11-3.38-14.12s3.75-3.62,3.75-1.75-.81,4.04-.81,4.04c3.12,.08,4.88-2.48,4.88-4.48s-1.88-3.25-6.12-3.25-7.75,4.75-7.75,9.81,3.38,6.88,3.38,11.38-3.25,6.19-5.94,6.19-.12-5.75,3.69-9.25c-5.31-2.25-10.25,2.19-10.25,8.25,0,4.12,3.88,4.94,6.44,4.94,5.44,0,12.12-2.94,12.12-11.75Z"/>
    <path class="cls-1" d="M152.62,86c-2.99,0-5.45,3.34-5.45,6.91s2.38,4.84,2.38,8.01-2.29,4.35-4.18,4.35-.09-4.05,2.6-6.51c-3.74-1.58-7.21,1.54-7.21,5.81,0,2.9,2.73,3.48,4.53,3.48,3.83,0,8.53-2.07,8.53-8.27s-2.38-7.74-2.38-9.94,2.64-2.55,2.64-1.23-.57,2.84-.57,2.84c2.2,.06,3.43-1.74,3.43-3.15s-1.32-2.29-4.31-2.29Z"/>
    <path class="cls-1" d="M110.43,88.47c-4-1.88-8.38,1.44-10.31,6.19s-6.5,15.97-9.12,15.97,.69-9.97,3.06-14.41,3.94-7.06,3.94-7.06c-4.25-1.12-8.69,.56-12.88,7.94s-6.56,14.88-8.38,14.88,3.56-17.25,6.44-24c.1-.22,.19-.43,.28-.64,8.31-1.38,18.95-2.63,23.59-2.67,6.25-.06,6.06-2.31,.06-2.31-4.56,0-13.69,.76-22.1,1.77,1.84-3.42,3.04-4.26,3.41-4.7,1.91-2.27,3-3.81-.38-3.81-2.64,0-6.41,3.22-9.52,9.36-4.14,.59-7.67,1.21-9.73,1.77-6.88,1.88-9.93,3.1-8,6.31,.56,.94,7.56-2.44,15.2-4.26,.29-.07,.6-.14,.92-.21-.28,.71-.55,1.45-.81,2.22-3.31,9.94-6.19,15-6.19,23.06,0,5.69,4.5,6.44,7.69,2.12s8.31-17.25,11.62-21c-3.62,7.56-6.5,12.19-6.5,16.56s2.75,4.12,3.75,4.12c4.12,0,10.31-7.56,10.31-7.56-5.81,13.56-13.12,24.94-16.5,24.94s2-6.88,9.5-13.81c-1.19-1.25-5-.81-13.38,1.69s-23.62,10.31-25,11.31l.81,1.38s13.44-8.06,31.75-11.88c-7.81,4.12-11.25,7-11.25,11.88,0,3.81,10.31,3.94,16.75-3.06s9.77-13,13.1-23.62c3.33-10.62,7.83-18.44,7.83-18.44Z"/>
    <path class="cls-1" d="M116.11,108.72c1.12-1.94,7.75-14.38,11.25-17.94,0,0-.12,1.75-2.56,5.25s-5.56,12.62-1.5,12.62,6.81-3.5,12.12-8.81c-1.88,2.69-3.12,7.38-1.44,8.06s7.12-.06,5-3.12,1.75-9.38,4.38-13.44,3.12-6.19-.31-6.19-11.88,18.38-14.25,18.38-1.44-5.88,1.38-10.34,5.75-7.97,.94-7.97-15.06,21.44-17.25,21.44c-1.37,0,.09-5.38,2.41-11.64,2.62-2.68,5.86-6.1,9.22-9.86,7.81-8.75,9.25-15.94,1.94-15.94s-20.69,27.12-20.69,36.67,8.25,4.76,9.38,2.83Zm8.69-32.25c3.38-4.44,4.5-3.44,4.5-1.62s-3.75,8.88-8.81,13.88c-1.04,1.03-2.07,2.14-3.06,3.27,2.61-6.62,5.79-13.43,7.38-15.52Z"/>
    <path class="cls-1" d="M144.86,111.65c-15.56,0-35.31,1.95-40.12,3.45s-4.5,3.56,0,2.56,29.75-2.06,36.38-2.06,12.5,1.12,14-1.5-.94-2.45-10.25-2.45Z"/>
  </g>
</svg>