<?xml version="1.0" encoding="UTF-8"?>
<svg id="Layer_2" data-name="Layer 2" xmlns="http://www.w3.org/2000/svg" viewBox="0 0 205.42 205.42">
  <defs>
    <style>
      .cls-1 {
        fill: #424242;
      }
    </style>
  </defs>
  <g id="Layer_1-2" data-name="Layer 1">
    <path class="cls-1" d="M0,205.42H205.42V0H0V205.42ZM1.5,1.5H203.92V203.92H1.5V1.5Z"/>
    <polygon class="cls-1" points="49.08 113.58 52.08 113.58 52.08 98.83 61.5 98.83 61.5 95.83 52.08 95.83 52.08 86.74 64.5 86.74 64.5 83.74 49.08 83.74 49.08 113.58"/>
    <rect class="cls-1" x="70.33" y="93.49" width="3" height="20.08"/>
    <circle class="cls-1" cx="71.83" cy="86.49" r="3"/>
    <path class="cls-1" d="M94.5,95.3c-1.59-1.43-3.69-2.31-6-2.31-4.96,0-9,4.04-9,9s4.04,9,9,9c2.31,0,4.41-.88,6-2.31v2.39c0,4.31-2.41,6.71-4.66,7.51-2.08,.74-4.16,.25-5.44-1.3l-2.31,1.91c1.46,1.77,3.6,2.73,5.88,2.73,.95,0,1.93-.17,2.88-.51,4.04-1.45,6.64-5.51,6.64-10.34v-17.58h-3v1.81Zm-6,12.69c-3.31,0-6-2.69-6-6s2.69-6,6-6,6,2.69,6,6-2.69,6-6,6Z"/>
    <path class="cls-1" d="M153.33,96.09c-1.83-1.82-4.36-2.95-7.14-2.95-5.59,0-10.14,4.55-10.14,10.14s4.55,10.14,10.14,10.14c2.78,0,5.31-1.13,7.14-2.95v3.1h3v-20.09h-3v2.61Zm-7.14,14.33c-3.94,0-7.14-3.2-7.14-7.14s3.2-7.14,7.14-7.14,7.14,3.2,7.14,7.14-3.2,7.14-7.14,7.14Z"/>
    <path class="cls-1" d="M126.57,93.2c-2.34-.71-5.64-.23-8.51,2.87-.9-1.36-2.22-2.38-3.82-2.87-1.98-.6-4.64-.35-7.15,1.61v-1.32h-3v20.08h3v-14.42c1.85-2.56,4.17-3.73,6.28-3.08,1.85,.56,3.05,2.4,3.05,4.67v12.83h3v-12.83c0-.49-.04-.97-.12-1.43,1.87-2.68,4.25-3.89,6.4-3.24,1.86,.56,3.05,2.4,3.05,4.67v12.83h3v-12.83c0-3.62-2.03-6.59-5.18-7.54Z"/>
  </g>
</svg>