<?xml version="1.0" encoding="UTF-8"?>
<svg id="Layer_2" data-name="Layer 2" xmlns="http://www.w3.org/2000/svg" viewBox="0 0 205.42 205.42">
  <defs>
    <style>
      .cls-1 {
        fill: #424242;
      }
    </style>
  </defs>
  <g id="Layer_1-2" data-name="Layer 1">
    <path class="cls-1" d="M0,205.42H205.42V0H0V205.42ZM1.5,1.5H203.92V203.92H1.5V1.5Z"/>
    <path class="cls-1" d="M94.93,97.53c-11.02,5.43-18.76,15.42-18.76,26.3v1h38.08v-.54l15-12.67v-31.05h-1c-8.9,0-25.97,4.53-33.32,16.95Zm-1.54,3.07c-1.19,2.86-1.9,6.07-1.96,9.68l-13.14,11.28c.91-8.44,6.78-16.1,15.1-20.95Zm18.86,22.24h-32.38l12.92-11.08h19.46v11.08Zm0-13.08h-18.81c.15-4.11,1.24-7.66,2.95-10.72,4.79-2.25,10.21-3.62,15.87-3.76v14.49Zm.62-16.49c-5.1,.05-10.02,1.04-14.53,2.78,6.73-8.7,18.87-12.54,26.99-13.3l-12.47,10.53Zm14.38,17.44l-13,10.98v-26.97l13-10.98v26.97Z"/>
  </g>
</svg>