<?xml version="1.0" encoding="UTF-8"?>
<svg id="Layer_2" data-name="Layer 2" xmlns="http://www.w3.org/2000/svg" viewBox="0 0 205.42 205.42">
  <defs>
    <style>
      .cls-1 {
        fill: #424242;
      }
    </style>
  </defs>
  <g id="Layer_1-2" data-name="Layer 1">
    <path class="cls-1" d="M0,205.42H205.42V0H0V205.42ZM1.5,1.5H203.92V203.92H1.5V1.5Z"/>
    <path class="cls-1" d="M102.71,75.86c-14.83,0-26.84,12.02-26.84,26.84s12.02,26.84,26.84,26.84,26.84-12.02,26.84-26.84-12.02-26.84-26.84-26.84Zm15.62,30.83c-1.82,7.14-8.24,12.13-15.62,12.13s-13.5-4.78-15.48-11.63c-.23-.8,.23-1.63,1.02-1.86,.8-.23,1.63,.23,1.86,1.02,1.61,5.57,6.79,9.46,12.6,9.46s11.23-4.06,12.71-9.87c.2-.8,1.02-1.29,1.82-1.08,.8,.21,1.29,1.02,1.08,1.82Z"/>
  </g>
</svg>