<?xml version="1.0" encoding="UTF-8"?>
<svg id="Layer_2" data-name="Layer 2" xmlns="http://www.w3.org/2000/svg" viewBox="0 0 205.42 205.42">
  <defs>
    <style>
      .cls-1 {
        fill: #424242;
      }
    </style>
  </defs>
  <g id="Layer_1-2" data-name="Layer 1">
    <path class="cls-1" d="M0,205.42H205.42V0H0V205.42ZM1.5,1.5H203.92V203.92H1.5V1.5Z"/>
    <path class="cls-1" d="M68.47,104.11c0-3.07,2.18-6.24,5.82-6.24,1-.03,1.97,.21,2.83,.68l.79-4.17c-1.15-.42-2.34-.63-3.54-.63-6.43,0-11.28,4.7-11.28,10.91,0,4.3,2.86,7.08,7.29,7.08,1.68,.05,3.36-.26,4.93-.92l.81-4.28c-1.31,.71-2.78,1.1-4.3,1.1-1.63,0-3.36-.92-3.36-3.54Z"/>
    <path class="cls-1" d="M56.72,93.75c-2.65-.03-5.22,1-7.08,2.89-2.33,2.44-3.65,5.72-3.62,9.1,0,3.04,1.55,6.06,4.96,6.06,2.36,.11,4.51-1.44,5.17-3.73l-.63,3.33h4.91l1.84-9.68c.37-1.89,.5-4.49-.94-6.19-.97-1.18-2.52-1.78-4.59-1.78Zm.34,9.05c-.55,2.86-2.15,4.8-4.01,4.8-1.15,0-1.84-1.13-1.84-2.94-.03-2.89,2.07-7.06,4.49-7.06,1.15,0,1.78,.68,1.84,1.89-.05,1.1-.21,2.23-.47,3.31Z"/>
    <polygon class="cls-1" points="95.81 94.04 90.22 94.04 83.61 101.93 86.15 88.5 81.06 88.5 76.71 111.41 81.82 111.41 83.58 102.12 87.2 111.41 92.71 111.41 88.96 102.04 95.81 94.04"/>
    <path class="cls-1" d="M47.88,93.64c-3.07-.26-5.96,1.44-7.19,4.25l.73-3.86h-4.51l-3.36,17.66h5.14l1.39-7.29c.81-4.3,3.28-6.01,6.79-5.48l1-5.27Z"/>
    <path class="cls-1" d="M147.28,104.09c0-3.07,2.18-6.24,5.82-6.24,1-.03,1.97,.21,2.83,.68l.79-4.17c-1.15-.39-2.36-.6-3.57-.6-6.43,0-11.28,4.7-11.28,10.91,0,4.3,2.86,7.08,7.29,7.08,1.68,.05,3.36-.26,4.93-.92l.81-4.3c-1.31,.71-2.78,1.1-4.28,1.1-1.63,0-3.36-.92-3.36-3.54Z"/>
    <path class="cls-1" d="M135.5,93.75c-2.65-.03-5.22,1-7.08,2.89-2.33,2.44-3.65,5.72-3.62,9.1,0,3.04,1.55,6.06,4.96,6.06,2.36,.11,4.51-1.44,5.17-3.73l-.63,3.33h4.91l1.84-9.68c.37-1.89,.5-4.49-.94-6.19-.97-1.18-2.52-1.78-4.59-1.78Zm.32,9.05c-.55,2.86-2.15,4.8-4.01,4.8-1.15,0-1.84-1.13-1.84-2.94,0-2.89,2.1-7.06,4.51-7.06,1.13,0,1.78,.68,1.84,1.89-.05,1.1-.21,2.23-.5,3.31Z"/>
    <path class="cls-1" d="M102.13,100.94c-1.42-.68-2.07-1.29-2.07-1.94,0-.94,.87-1.5,2.2-1.5,1.52,0,3.04,.45,4.35,1.26l.73-3.91c-.87-.55-2.44-1.13-4.85-1.13-4.56,0-7.61,2.41-7.61,5.98,0,1.81,1.21,3.36,3.65,4.56,1.52,.76,2.12,1.36,2.12,2.2,0,.94-.87,1.52-2.12,1.52-1.65-.08-3.31-.52-4.77-1.34l-.73,3.91c1.1,.68,3.1,1.15,5.04,1.18,2.73,0,4.98-.73,6.38-2.12,1.05-1.05,1.63-2.47,1.57-3.96-.03-2.44-2.07-3.8-3.88-4.72Z"/>
    <path class="cls-1" d="M170.47,102.41c.94-.92,1.44-2.2,1.39-3.52,0-3.1-2.39-5.19-6.01-5.19-2.83,0-5.54,1.23-7.37,3.41-1.73,2.05-2.7,4.67-2.7,7.35,0,4.64,2.73,7.29,7.5,7.29,1.1,0,3.99-.13,6.43-1.39l.81-4.3c-1.81,1.13-3.91,1.71-6.03,1.71-2.41-.03-4.07-1.29-3.86-3.49,3.86,.76,8.11-.18,9.84-1.86Zm-5.3-4.93c1.97,0,2.2,1.71,1.42,2.49-.73,.73-2.41,1.05-5.43,1.02,.42-1.71,1.81-3.52,4.01-3.52Z"/>
    <path class="cls-1" d="M118.87,93.7c-2.12,0-4.01,1.23-5.3,3.1l.52-2.78h-4.51l-4.35,22.9h5.12l1.31-6.87c.6,1.05,1.63,1.73,3.44,1.73,1.31-.03,2.57-.39,3.73-1.02,3.65-1.92,5.67-6.24,5.67-10.44s-2.2-6.58-5.61-6.61Zm-4.41,14.22c-2.36,0-1.76-3.38-1.55-4.51,.63-3.31,2.26-5.48,4.15-5.48s2.07,1.97,2.07,2.78c.03,3.38-1.97,7.19-4.67,7.21Z"/>
  </g>
</svg>