<?xml version="1.0" encoding="UTF-8"?>
<svg id="Layer_2" data-name="Layer 2" xmlns="http://www.w3.org/2000/svg" viewBox="0 0 205.42 205.42">
  <defs>
    <style>
      .cls-1 {
        fill: #424242;
      }
    </style>
  </defs>
  <g id="Layer_1-2" data-name="Layer 1">
    <path class="cls-1" d="M0,0V205.42H205.42V0H0ZM203.92,203.92H1.5V1.5H203.92V203.92Z"/>
    <path class="cls-1" d="M102.71,129.4c14.74,0,26.69-11.95,26.69-26.69v-26.69h-26.69c-14.74,0-26.69,11.95-26.69,26.69s11.95,26.69,26.69,26.69Zm0-43.88h17.19v18.12h-17.19v-18.12Zm0,20.12h17.15c-.4,9.57-7.75,17.35-17.15,18.38v-18.38Zm-1.31,.12v18.33c-.27,.01-.54,.04-.81,.04-10.35,0-18.77-8.15-19.27-18.38h20.08Z"/>
  </g>
</svg>