<?xml version="1.0" encoding="UTF-8"?>
<svg id="Layer_2" data-name="Layer 2" xmlns="http://www.w3.org/2000/svg" viewBox="0 0 205.42 205.42">
  <defs>
    <style>
      .cls-1 {
        fill: #424242;
      }
    </style>
  </defs>
  <g id="Layer_1-2" data-name="Layer 1">
    <path class="cls-1" d="M0,205.42H205.42V0H0V205.42ZM1.5,1.5H203.92V203.92H1.5V1.5Z"/>
    <path class="cls-1" d="M113.84,88.79c1.97-2.86,1.3-5.15,1.3-5.15,0,0-5.91,3.77-10.38,3.68-4.47-.1-5.91-1.29-12.77,.9s-8.79,8.89-10.77,10.33c-1.99,1.44-8.22,6.13-8.22,6.13v.08s5.64-1.79,5.64-1.79c0,0-1.54,1.45-4.82,5.87l-.15-.14v.03s2.64,4.03,5.22,3.28c.3-.1,.59-.22,.87-.36,1.04,.58,2.39,1.15,3.89,1.3,0,0-1.02-1.18-1.86-2.52l.59-.38,2.14,.79-.24-2.01s.01,0,.02-.01l2.1,.77-.26-1.83c.26-.14,.53-.27,.8-.39l2.19-8.28,9.07-6.18-.72,1.82c-1.83,4.52-5.29,5.59-5.29,5.59l-1.44,.54c-1.07,1.27-1.52,1.58-1.89,5.83,.86-.22,1.69-.27,2.44-.07,3.87,1.04,5.22,5.71,4.17,7-.26,.32-.88,.88-1.67,1.53h-1.57l-.02,1.27-.16,.13h-1.6l-.02,1.25-.42,.31c-1.5,.03-3.4-1.28-3.4-1.28,0,1.19,.99,3.03,.99,3.03l.17-.08-.15,.11s4.02,2.68,6.55,1.69c2.25-.88,8.08-5.48,13.11-7.66l15.23-4.01,2.01-5.2-11.61,3.06v-4.68l13.62-3.59,2.01-5.2-15.63,4.12v-4.68l17.63-4.65,1.87-4.85-.08-.3-18.51,4.87Z"/>
  </g>
</svg>