<?xml version="1.0" encoding="UTF-8"?>
<svg id="Layer_2" data-name="Layer 2" xmlns="http://www.w3.org/2000/svg" viewBox="0 0 205.42 205.42">
  <defs>
    <style>
      .cls-1 {
        fill: #424242;
      }
    </style>
  </defs>
  <g id="Layer_1-2" data-name="Layer 1">
    <path class="cls-1" d="M0,205.42H205.42V0H0V205.42ZM1.5,1.5H203.92V203.92H1.5V1.5Z"/>
    <path class="cls-1" d="M43.58,90.32c.69,1.4,1.03,2.78,1.03,4.85,0,3.77-2.78,9.66-4.85,13.1l-2.41-18.99-10,.69,4.48,26.55h11.06c4.83-6.21,10.69-15.54,10.69-22.44,0-2.07-.37-3.79-1.4-5.52l-8.6,1.75Z"/>
    <path class="cls-1" d="M78.39,96.53c0-4.46-3.1-7.59-8.62-7.59-9.98,0-14.83,8.65-14.83,16.9,0,6.21,3.13,11.38,11.38,11.38,3.45,0,6.9-.69,8.97-1.72l1.4-7.59c-3.08,1.38-5.52,2.07-7.93,2.07s-4.14-1.35-4.14-4.48c5.15,0,14.14-2.41,13.77-8.97Zm-13.45,3.79c0-3.1,2.44-5.17,4.48-5.17,1.03,0,1.72,.32,1.72,1.72,0,2.76-4.48,3.45-6.21,3.45Z"/>
    <path class="cls-1" d="M100.06,88.2c-3.45,0-5.86,1.35-7.93,2.76v-2.07h-8.25l-4.14,27.61h9.34l3.45-18.99c.71-.34,1.72-1.03,3.13-1.03,1.03,0,1.72,0,1.72,1.4,0,.32-.34,1.38-.34,1.72l-2.76,16.9h9.31l2.76-18.28c.35-1.03,.35-2.41,.35-3.45,0-3.45-1.72-5.84-6.63-6.58Z"/>
    <path class="cls-1" d="M167.38,88.59c-10.69,0-15.17,8.28-15.17,16.9,0,6.55,2.76,11.72,10.69,11.4,10.69,0,15.17-8.62,15.17-17.24,0-6.21-2.76-11.06-10.69-11.06Zm-3.45,21.72c-1.72,0-2.41-1.72-2.41-4.14,0-3.42,.69-10,4.48-10,1.72,0,2.41,1.38,2.41,3.79,0,3.1-.67,10-4.48,10.35Z"/>
    <path class="cls-1" d="M143.24,88.57c-3.45,0-5.86,1.06-8.62,3.13-1.06-1.72-3.1-2.76-5.91-3.18-3.45,0-6.21,1.35-7.93,2.76l-.34-2.41h-7.93l-4.16,27.59h9.34l3.1-19.29c.71-.34,1.72-1.03,3.13-1.03,1.03,0,1.72,.32,1.72,1.72v1.4l-2.76,17.24h9.34l3.1-19.31c.71-.69,2.09-1.03,3.13-1.03s1.72,.32,1.72,1.72v1.4l-2.76,17.24h9.34l2.73-18.3c.34-1.03,.34-2.41,.34-3.45,0-3.79-1.72-6.21-6.58-6.21Z"/>
  </g>
</svg>