<?xml version="1.0" encoding="UTF-8"?>
<svg id="Layer_2" data-name="Layer 2" xmlns="http://www.w3.org/2000/svg" viewBox="0 0 205.42 205.42">
  <defs>
    <style>
      .cls-1 {
        fill: #424242;
      }
    </style>
  </defs>
  <g id="Layer_1-2" data-name="Layer 1">
    <path class="cls-1" d="M0,205.42H205.42V0H0V205.42ZM1.5,1.5H203.92V203.92H1.5V1.5Z"/>
    <path class="cls-1" d="M123.62,86.25c-2.33-1.85-5.28-3.02-8.24-3.02-.59,0-1.18,.05-1.77,.14-4.26,.7-7.27,3.77-9.99,6.87-.31,.36-.61,.71-.91,1.08-.3-.36-.6-.72-.91-1.08-2.72-3.1-5.73-6.17-9.99-6.87-.59-.09-1.18-.14-1.77-.14-2.96,0-5.9,1.17-8.24,3.02-2.8,2.22-4.77,5.36-6.08,8.69-2.3,5.86-2.95,11.92-1.83,18.1,.41,2.25,1.08,4.57,2.6,6.33,6.23,7.28,15.35-1.25,19.17-6.63,2.72-3.83,4.78-8.05,7.06-12.15,2.28,4.09,4.34,8.32,7.06,12.15,3.81,5.38,12.93,13.9,19.16,6.63,1.51-1.77,2.19-4.08,2.6-6.33,1.12-6.19,.47-12.24-1.83-18.1-1.3-3.33-3.28-6.46-6.08-8.69Zm-30.05,19.07c-1.67,2.79-3.21,5.91-5.53,8.22-2.11,2.12-5.61,3.64-7.53,.42-1.56-2.62-1.49-6.03-1.26-8.96,.36-4.62,1.7-9.29,4.67-12.85,1.08-1.29,2.39-2.43,3.93-3.12,1.54-.69,3.33-.9,4.93-.36,1.69,.56,3.02,1.88,4.17,3.24,.96,1.14,1.85,2.34,2.67,3.56-2.16,3.18-4.07,6.55-6.05,9.84Zm31.33,8.65c-1.91,3.22-5.41,1.7-7.53-.42-2.31-2.32-3.85-5.44-5.53-8.22-1.98-3.3-3.89-6.66-6.05-9.85,.82-1.23,1.7-2.42,2.67-3.56,1.15-1.36,2.48-2.67,4.16-3.24,1.6-.54,3.39-.32,4.93,.36,1.54,.69,2.85,1.83,3.93,3.12,2.97,3.55,4.31,8.23,4.67,12.85,.23,2.93,.3,6.34-1.27,8.96Z"/>
  </g>
</svg>