<?xml version="1.0" encoding="UTF-8"?>
<svg id="Layer_2" data-name="Layer 2" xmlns="http://www.w3.org/2000/svg" viewBox="0 0 205.42 205.42">
  <defs>
    <style>
      .cls-1 {
        fill: #424242;
      }
    </style>
  </defs>
  <g id="Layer_1-2" data-name="Layer 1">
    <path class="cls-1" d="M0,205.42H205.42V0H0V205.42ZM1.5,1.5H203.92V203.92H1.5V1.5Z"/>
    <path class="cls-1" d="M118.1,91.07c-3.32-.26-6.52,.82-9,3.05l-15.96,14.38c-2.52,2.27-6.35,2.15-8.73-.28l-1.89-1.94c-1.2-1.23-1.84-2.86-1.79-4.59,.05-1.72,.78-3.31,2.06-4.47l17.52-15.91c1.08-.98,2.71-.92,3.72,.13,.5,.52,.76,1.2,.74,1.91-.02,.72-.32,1.38-.84,1.87l-15.12,14.18c-.91,.85-.95,2.27-.1,3.18,.85,.91,2.27,.95,3.18,.1l15.13-14.18c1.41-1.32,2.21-3.11,2.26-5.04,.05-1.93-.66-3.76-1.99-5.15-2.7-2.82-7.09-2.97-9.99-.35l-17.52,15.91c-2.19,1.99-3.44,4.71-3.53,7.67-.09,2.96,1,5.75,3.06,7.86l1.89,1.94c4.07,4.17,10.64,4.38,14.96,.48l15.96-14.38c1.55-1.4,3.55-2.08,5.63-1.91,2.08,.16,3.95,1.15,5.26,2.77,2.41,2.99,2.19,7.29-.52,10.02l-15.43,15.54c-.58,.59-1.36,.91-2.19,.91h0c-.83,0-1.61-.33-2.19-.92-.59-.6-.9-1.39-.88-2.23,.02-.84,.37-1.61,.98-2.19l15.13-14.14c.91-.85,.96-2.27,.11-3.18-.85-.91-2.27-.96-3.18-.11l-15.13,14.14c-1.5,1.41-2.36,3.32-2.4,5.38-.04,2.06,.72,4,2.17,5.48,1.43,1.46,3.35,2.27,5.39,2.27h.02c2.04,0,3.95-.8,5.38-2.24l15.43-15.54c4.32-4.35,4.68-11.24,.82-16.02-2.1-2.6-5.08-4.17-8.41-4.43Z"/>
  </g>
</svg>